<?xml version="1.0" encoding="utf-8"?>
<!-- Generator: Adobe Illustrator 16.0.0, SVG Export Plug-In . SVG Version: 6.00 Build 0)  -->
<!DOCTYPE svg PUBLIC "-//W3C//DTD SVG 1.1//EN" "http://www.w3.org/Graphics/SVG/1.1/DTD/svg11.dtd">
<svg version="1.1" id="Layer_1" xmlns="http://www.w3.org/2000/svg" xmlns:xlink="http://www.w3.org/1999/xlink" x="0px" y="0px"
	 width="595.28px" height="608px" viewBox="0 0 595.28 608" enable-background="new 0 0 595.28 608" xml:space="preserve">
<text transform="matrix(1 0 0 1 198.2847 496.8418)" display="none" fill="#ED1C24" font-family="'CenturyGothic'" font-size="47.6498">FireTweet</text>
<text transform="matrix(1 0 0 1 200.2852 522.5254)" display="none" fill="#ED1C24" font-family="'CenturyGothic'" font-size="20.4355">Technologies Pvt. Ltd.</text>
<g>
	<path fill="#ED1D24" d="M583.311,306.287c0,157.771-127.902,285.674-285.668,285.674c-157.772,0-285.673-127.902-285.673-285.674
		S139.87,20.619,297.643,20.619C455.408,20.619,583.311,148.516,583.311,306.287z"/>
	<path fill="#FFFFFF" d="M182.076,377.321c0,0-27.206-4.169-33.484,13.87c0,0,29.299,15.771,29.299,20.044
		C177.89,415.509,182.076,377.321,182.076,377.321z"/>
	<g>
		<defs>
			<path id="SVGID_1_" d="M57.67,17.28c0,0,42.327,0,102.556,0c4.017,0,8.108,0,12.274,0c17.226-0.615,34.649-0.768,52.138-0.721
				c5.829,0.021,11.666,0.063,17.507,0.138c7.882,0.192,15.68,0.323,23.436,0.411c3.87,0.042,7.745,0.074,11.636,0.083
				c37.572-1.544,76.773-1.544,113.783,0.055c4.156,0.03,8.297,0.035,12.404,0.035c90.326,0,162.902,0,162.902,0v561.824
				c0,0-67.908,0-154.098,0c-4.529,0-9.119,0-13.754,0.01c-29.773-0.01-57.535-0.01-86.465-0.01c-4.891,0-9.783,0-14.668,0
				c-122.088,0-239.652,0-239.652,0s0-30.586,0-77.486c0-3.354,0-6.785,0.006-10.295c0.694-55.943-0.939-109.835-0.006-165.065
				c0-4.676,0-9.349,0-14.023c-2.565-49.973-7.464-98.97-0.095-149.199c0.095-4.253,0.095-8.37,0.095-12.42
				C57.67,73.619,57.67,17.28,57.67,17.28z"/>
		</defs>
		<clipPath id="SVGID_2_">
			<use xlink:href="#SVGID_1_"  overflow="visible"/>
		</clipPath>
	</g>
	<g>
		<path fill="#ED1D24" d="M430.807,260.014c0,0-17.023,15.714-30.809,52.266c-13.779,36.552,19.908,33.491,19.908,33.491
			l19.902-52.06L430.807,260.014z"/>
		<path fill="#ED1D24" d="M402.295,243.946c0,0,7.799,31.228,3.83,71.966c-3.865,39.63-9.436,58.808-9.436,58.808
			s-21.189-14.405-18.129-58.808C381.629,271.508,402.295,243.946,402.295,243.946z"/>
	</g>
	<path fill="#FFFFFF" d="M167.857,400.911l-12.758,10.659c0,0,15.439,7.044,22.187,0l1.156-3.122c0,0-1.743-4.585-1.156-9.841
		C177.874,393.35,167.857,400.911,167.857,400.911z"/>
	<path fill="#FEBC12" d="M383.748,388.579c1.588,5.032,2.514,10.049,2.85,15s0.074,9.834-0.725,14.599
		c-7.391,49.869-58.018,79.267-106.482,73.953c-5.735-0.123-11.37-0.592-16.857-1.494c-19.764-3.219-37.65-12.014-52.008-24.719
		c-3.585-3.172-6.953-6.592-10.079-10.23c-34.284-35.004-32.651-92.167-4.967-129.081c3.155-4.303,6.633-8.351,10.395-12.113
		c18.813-18.817,44.81-30.456,73.526-30.456c45.939,0,84.927,29.796,98.683,71.114c1.715,5.164,3.041,10.513,3.928,16.004
		C382.92,376.67,383.463,382.434,383.748,388.579z"/>
	<path fill="#FEBC12" d="M350.629,312.281c0,0,12.041,9.779,21.912,29.464c16.566,33.029,53.549,49.417,90.873,51.173
		c3.402,27.903-3.402,55.518-17.463,78.25c-2.811,4.551-5.906,8.898-9.277,13.041c-35.33,49.168-98.365,62.27-161.684,43.262
		c-29.711-8.92-59.004-35-74.313-58.551c-3.057-4.713-5.835-9.561-8.302-14.465c-13.143-25.604-21.313-55.001-14.776-84.401
		c4.896,3.267,9.794,0,15.302,2.914c4.86,0.895,10.536,2.512,16.807,4.438c43.896,13.573,117.058,36.199,117.058,36.199
		s6.068-5.128,14.164-11.953c9.791-7.098,17.955-13.633,26.264-22.24C375.277,372.562,350.629,312.281,350.629,312.281z"/>
	<circle fill="#FFFFFF" cx="243.819" cy="354.907" r="17.745"/>
	<g>
		<path fill="#FFFFFF" d="M435.105,513.193c-9.157,8.994-19.066,17.29-29.668,24.68c-10.582,7.417-21.856,13.942-33.734,19.3
			c-11.882,5.337-24.367,9.507-37.25,12.161c-6.438,1.344-12.974,2.279-19.557,2.821c-1.645,0.146-3.296,0.218-4.945,0.329
			c-1.65,0.082-3.305,0.117-4.958,0.177l-4.688,0.208l-5.017,0.067c-1.65-0.026-3.303-0.025-4.954-0.076
			c-1.667-0.074-3.268-0.104-4.991-0.217c-1.61-0.108-3.164-0.18-4.87-0.348c-1.681-0.138-3.347-0.298-4.981-0.495
			c-6.581-0.737-13.125-1.859-19.582-3.378c-6.458-1.508-12.845-3.354-19.11-5.561c-6.263-2.211-12.396-4.795-18.39-7.671
			c-5.986-2.893-11.814-6.115-17.471-9.62c-5.657-3.507-11.09-7.369-16.343-11.462c-5.255-4.093-10.272-8.492-15.07-13.122
			l-0.901-0.868l-0.917-0.911l-1.692-1.707c-1.134-1.16-2.341-2.446-3.486-3.665c-1.113-1.24-2.263-2.451-3.345-3.719l-1.643-1.887
			l-1.402-1.487c-9.135-9.754-17.281-20.383-24.219-31.803c-6.938-11.407-12.756-23.521-17.183-36.149
			c-4.429-12.624-7.536-25.739-9.074-39.061c-1.592-13.313-1.573-26.829,0.001-40.156c0.808-6.662,2.019-13.274,3.621-19.787
			c1.616-6.51,3.66-12.909,6.062-19.158c1.189-3.13,2.531-6.199,3.924-9.238c0.716-1.511,1.424-3.025,2.185-4.513l1.019-2.052
			l1.046-2.166l0.261-0.542l0.203-0.484l0.4-0.958c0.262-0.647,0.55-1.258,0.806-1.933c0.477-1.375,1.05-2.725,1.436-4.131
			c0.924-2.773,1.508-5.643,2.044-8.526c1.961-11.593,0.614-23.832-2.922-35.602c-3.538-11.807-9.167-23.147-15.736-34.022
			l-1.633-2.703l2.762-0.57h0c2.195-0.968,4.469-1.797,6.824-2.454c2.357-0.645,4.789-1.119,7.279-1.382
			c4.974-0.516,10.226-0.08,15.2,1.541c4.984,1.591,9.578,4.363,13.425,7.762c3.861,3.404,7.039,7.376,9.684,11.539
			c2.66,4.163,4.827,8.523,6.678,12.942c1.863,4.417,3.392,8.907,4.761,13.395c1.357,4.492,2.525,8.996,3.648,13.451
			c1.131,4.442,2.169,8.904,3.569,13.001l-4.443,0.933c-0.159-5.135-0.951-10.323-1.877-15.543l-2.89-15.83
			c-0.916-5.342-1.743-10.759-2.268-16.261c-0.544-5.5-0.781-11.087-0.631-16.716c0.148-5.629,0.74-11.297,1.81-16.913
			c1.052-5.621,2.661-11.164,4.712-16.544c1.044-2.683,2.188-5.329,3.45-7.919c1.292-2.571,2.648-5.114,4.138-7.572
			c2.949-4.936,6.309-9.598,9.949-13.992c3.653-4.38,7.574-8.501,11.699-12.364c2.062-1.934,4.182-3.791,6.335-5.6
			c1.065-0.923,2.173-1.78,3.261-2.669l3.115-2.551c3.986-3.251,7.919-6.692,11.672-10.14c3.75-3.463,7.293-7.067,10.507-10.74
			c3.196-3.675,6.1-7.448,8.163-11.251c1.026-1.903,1.878-3.783,2.411-5.66c0.584-1.869,0.841-3.717,0.873-5.636
			c0.012-1.917-0.287-3.928-0.86-6.061c-0.574-2.131-1.442-4.358-2.445-6.676c-2.005-4.633-4.689-9.565-6.404-15.106l-0.001,0
			l-1.977-2.6l3.818-1.841c3.385-1.632,6.898-3.046,10.531-4.247c3.635-1.194,7.407-2.115,11.295-2.749
			c3.888-0.608,7.906-0.936,12.002-0.773c4.096,0.13,8.268,0.751,12.381,1.893c4.109,1.162,8.111,2.925,11.855,5.139
			c3.736,2.237,7.128,5.004,10.163,8.039c3.014,3.063,5.644,6.412,7.916,9.902c2.265,3.5,4.188,7.136,5.838,10.83
			c3.292,7.397,5.512,14.999,7.105,22.583c0.788,3.796,1.44,7.591,1.902,11.388c0.469,3.796,0.778,7.588,0.944,11.369
			c0.154,3.782,0.191,7.551,0.08,11.306c-0.092,3.754-0.326,7.492-0.656,11.21c-0.653,7.438-1.713,14.796-2.875,22.091l-0.015-0.95
			c0.016,0.521,0,1.178-0.041,1.405c-0.033,0.331-0.071,0.653-0.115,0.889c-0.082,0.539-0.177,0.992-0.27,1.46
			c-0.189,0.905-0.389,1.771-0.595,2.619l-1.255,5.003l-2.565,9.819l-2.531,9.771c-0.422,1.627-0.789,3.264-1.118,4.91
			c-0.168,0.822-0.313,1.65-0.452,2.481c-0.127,0.841-0.253,1.65-0.349,2.561v0l-6.018-3.823c2.982-2.322,5.626-4.411,8.136-6.777
			c2.486-2.348,4.744-4.894,6.792-7.605c2.059-2.702,3.85-5.61,5.431-8.637c0.826-1.492,1.5-3.075,2.239-4.617l0.976-2.386
			l0.475-1.164l0.477-1.28l3.722-10.222c1.244-3.431,2.514-6.852,3.818-10.292c0.645-1.722,1.319-3.434,2.039-5.223l0.608-1.417
			l0.327-0.747l0.299-0.614l1.196-2.456c1.692-3.384,3.461-6.694,5.372-9.937c1.919-3.245,3.971-6.432,6.191-9.534
			c2.225-3.097,4.607-6.121,7.246-8.971c2.628-2.857,5.497-5.558,8.661-7.987c3.148-2.437,6.614-4.591,10.373-6.269
			c3.742-1.7,7.826-2.841,11.993-3.295c4.169-0.45,8.408-0.182,12.436,0.712c2.014,0.456,3.979,1.05,5.879,1.771
			c1.893,0.738,3.72,1.596,5.477,2.544c1.751,0.961,3.427,2.024,5.025,3.158c0.795,0.572,1.573,1.162,2.322,1.753l1.082,0.882
			l0.479,0.396l0.168,0.146c0.006,0.009,0.067,0.057,0.027,0.036c-0.029-0.013-0.061-0.023-0.092-0.03l0.49,6.667l0,0
			c-2.347,3.47-4.729,6.612-6.951,9.765c-2.241,3.128-4.35,6.214-6.33,9.297c-3.959,6.165-7.383,12.333-10.375,18.797
			c-3.033,6.443-5.227,13.367-6.815,20.574c-1.57,7.211-2.544,14.714-3.024,22.368c-0.262,3.827-0.43,7.692-0.489,11.584
			c-0.05,3.892-0.089,7.814-0.01,11.754c0.086,3.939,0.159,7.904,0.325,11.88c0.176,3.975,0.316,7.974,0.539,11.979l1.234,24.192
			c0.198,4.054,0.359,8.12,0.484,12.195c0.131,4.074,0.213,8.159,0.199,12.254l-7.315,0.468l0.001-0.002
			c-0.737-4.682-1.058-9.425-1.077-14.201c-0.014-4.776,0.324-9.583,1.009-14.39c0.712-4.802,1.789-9.605,3.35-14.328
			c0.766-2.367,1.701-4.694,2.724-7.002c1.038-2.303,2.231-4.557,3.55-6.763c1.334-2.196,2.838-4.318,4.484-6.353
			c1.673-2.013,3.494-3.937,5.49-5.696c2.008-1.743,4.166-3.351,6.482-4.711c2.3-1.383,4.756-2.517,7.281-3.401
			c5.055-1.781,10.403-2.474,15.531-2.188c5.137,0.296,10.07,1.466,14.575,3.387l0,0l2.257,0.302l0.183,2.895
			c0.329,5.239,0.063,10.58-0.654,15.755c-0.695,5.185-1.737,10.184-2.533,14.98c-0.792,4.809-1.351,9.458-1.398,14.102
			c-0.116,4.638,0.285,9.272,0.934,13.914c0.69,4.639,1.695,9.287,2.923,13.916c0.614,2.301,1.299,4.651,1.973,6.91
			c0.747,2.387,1.48,4.835,2.238,7.172l4.551,14.319c1.502,4.87,2.96,9.925,4.091,15.218c1.111,5.293,1.788,10.807,1.996,16.244
			c0.153,5.431-0.089,10.775-0.548,16.006c-0.233,2.615-0.546,5.195-0.84,7.781l-0.531,3.837l-0.266,1.918l-0.133,0.959
			l-0.204,1.158l-0.337,1.854l-0.521,2.233c-0.346,1.562-0.788,2.829-1.194,4.224c-0.904,2.693-1.91,5.333-3.096,7.844
			c-2.324,5.06-5.119,9.761-8.203,14.17c-3.07,4.426-6.43,8.559-9.954,12.5c-3.53,3.935-7.238,7.663-11.104,11.213
			c-1.935,1.774-3.905,3.506-5.931,5.194c-1.009,0.848-2.041,1.678-3.088,2.506l-1.609,1.239c-0.549,0.416-1.1,0.822-1.795,1.307
			l0.43-0.323c-10.977,8.74-23.831,14.967-37.335,18.284c-13.498,3.357-27.677,3.792-41.324,1.269
			c-6.821-1.269-13.519-3.26-19.889-6.034c-6.366-2.772-12.43-6.265-17.964-10.457c-5.539-4.183-10.564-9.029-14.932-14.385
			c-1.09-1.341-2.134-2.716-3.146-4.112l-0.096-0.13l-0.048-0.065c0.06,0.076-0.202-0.262,0.122,0.153l-0.189-0.238l-0.378-0.476
			l-0.379-0.477l-0.419-0.556c-0.584-0.764-1.103-1.506-1.607-2.243c-1.003-1.496-1.934-3.04-2.784-4.628
			c-0.416-0.799-0.826-1.6-1.202-2.418l-0.144-0.305l-0.118-0.255l-0.06-0.14l-0.238-0.561l-0.476-1.119
			c-0.325-0.82-0.674-1.749-0.983-2.608c-0.269-0.854-0.572-1.698-0.807-2.561c-0.488-1.72-0.919-3.455-1.225-5.21
			c-0.656-3.503-0.933-7.062-0.879-10.62c0.05-1.781,0.151-3.562,0.39-5.344c0.123-0.892,0.243-1.781,0.425-2.675l0.129-0.669
			l0.084-0.409l0.072-0.296l0.288-1.183c0.851-3.448,2.003-6.774,3.508-9.984c2.955-6.423,7.487-12.28,13.268-16.52
			c2.88-2.125,6.059-3.824,9.377-5.074c3.329-1.233,6.798-1.989,10.274-2.321c6.965-0.643,13.911,0.401,20.309,2.632
			c6.419,2.211,12.319,5.59,17.552,9.69c5.237,4.102,9.867,8.878,13.838,14.101c3.96,5.233,7.326,10.862,10.088,16.743
			c-3.351-5.565-7.128-10.849-11.46-15.604c-4.314-4.76-9.124-9.04-14.413-12.537c-2.638-1.755-5.398-3.301-8.247-4.614
			c-2.844-1.322-5.77-2.441-8.766-3.242c-5.974-1.646-12.215-2.115-18.143-1.16c-5.924,0.956-11.484,3.4-15.975,7.114
			c-4.495,3.715-7.907,8.638-10.069,14.126c-1.102,2.733-1.922,5.621-2.465,8.51l-0.222,1.197l-0.056,0.299
			c0.003-0.013-0.026,0.134,0.003-0.009l-0.01,0.066l-0.02,0.132l-0.079,0.53c-0.116,0.701-0.18,1.426-0.25,2.144
			c-0.135,1.442-0.154,2.909-0.137,4.371c0.072,2.928,0.393,5.864,1.038,8.719c0.299,1.433,0.706,2.838,1.15,4.224
			c0.213,0.697,0.489,1.371,0.728,2.058l0.797,1.92l0.515,1.103l0.258,0.551l0.064,0.137c-0.084-0.183-0.005-0.016-0.016-0.041
			l0.031,0.06l0.125,0.241c0.324,0.646,0.677,1.276,1.031,1.905c0.728,1.248,1.517,2.458,2.361,3.629
			c0.434,0.587,0.865,1.16,1.285,1.671l0.326,0.406l0.396,0.463l0.395,0.463l0.197,0.231l0.349,0.441
			c0.935,1.199,1.896,2.376,2.893,3.52c3.979,4.583,8.491,8.672,13.418,12.162c9.862,6.981,21.38,11.506,33.308,13.385
			c11.934,1.896,24.269,1.146,35.896-1.994c11.638-3.125,22.544-8.752,31.729-16.371l0.084-0.07l0.346-0.253
			c0.331-0.242,0.789-0.585,1.234-0.938l1.358-1.086c0.912-0.747,1.825-1.508,2.728-2.293c1.81-1.563,3.588-3.181,5.329-4.836
			c3.483-3.311,6.813-6.78,9.935-10.383c3.114-3.608,6.041-7.345,8.633-11.229c2.604-3.876,4.922-7.877,6.732-11.986
			c0.939-2.046,1.687-4.126,2.361-6.204c0.276-1.023,0.649-2.139,0.819-3.04l0.335-1.438l0.313-1.859l0.118-0.699l0.114-0.91
			l0.228-1.819l0.456-3.639c0.241-2.41,0.503-4.827,0.686-7.221c0.368-4.789,0.479-9.504,0.333-14.124
			c-0.191-4.611-0.775-9.103-1.715-13.651c-0.91-4.552-2.189-9.184-3.576-13.941c-1.364-4.785-2.807-9.588-4.181-14.551
			c-0.691-2.476-1.302-4.873-1.957-7.313c-0.665-2.587-1.281-5.093-1.809-7.688c-1.068-5.157-1.92-10.41-2.308-15.769
			c-0.403-5.352-0.383-10.803,0.205-16.199c0.577-5.395,1.742-10.686,3.182-15.675c1.422-5.009,3.058-9.709,4.372-14.378
			c1.347-4.664,2.354-9.333,2.988-14.146l2.439,3.197l0,0c-4.402-0.248-8.658-0.201-12.692,0.423c-2.017,0.293-3.97,0.75-5.848,1.33
			c-1.88,0.577-3.68,1.301-5.394,2.163c-1.712,0.864-3.346,1.849-4.884,2.975c-1.527,1.141-3.006,2.355-4.358,3.731
			c-1.364,1.363-2.652,2.827-3.838,4.399c-1.209,1.553-2.317,3.213-3.347,4.946c-2.076,3.458-3.821,7.215-5.331,11.132
			c-1.499,3.925-2.755,8.016-3.843,12.206c-0.543,2.097-1.026,4.22-1.498,6.361c-0.466,2.141-0.883,4.307-1.284,6.487
			c-0.815,4.362-1.471,8.792-2.226,13.281l0.001,0.002l-7.315,0.468c-1.047-3.938-2.031-7.884-2.978-11.839
			c-0.952-3.954-1.881-7.915-2.762-11.889c-1.787-7.946-3.421-15.945-4.867-24.025c-0.697-4.043-1.409-8.101-1.979-12.192
			c-0.578-4.09-1.145-8.202-1.554-12.348c-0.415-4.146-0.803-8.318-1.006-12.525c-0.211-4.207-0.336-8.445-0.299-12.713
			c0.117-8.53,0.755-17.204,2.415-25.875c1.638-8.66,4.246-17.332,8.109-25.559c3.878-8.209,9.35-15.763,16.025-21.822
			c3.336-3.031,6.969-5.684,10.793-7.924c3.844-2.216,7.857-4.066,12.149-5.238l0.001,0l0.49,6.667l-0.39-0.197l-0.263-0.145
			l-0.402-0.229l-0.645-0.382l-1.157-0.681c-0.748-0.444-1.486-0.863-2.232-1.261c-1.48-0.81-2.98-1.538-4.496-2.186
			c-3.028-1.296-6.13-2.263-9.245-2.771c-3.113-0.524-6.237-0.6-9.302-0.192c-3.062,0.407-6.077,1.24-8.974,2.533
			c-2.898,1.275-5.682,2.966-8.299,4.972c-2.626,1.992-5.097,4.282-7.41,6.773c-4.645,4.972-8.729,10.652-12.389,16.645
			c-1.818,3.013-3.547,6.094-5.188,9.185l-1.25,2.429l-0.313,0.607l-0.222,0.504l-0.484,1.085c-0.663,1.58-1.353,3.245-2.01,4.923
			l-7.933,20.351l-0.504,1.27l-0.589,1.351l-1.164,2.639c-0.872,1.723-1.685,3.47-2.68,5.134c-1.903,3.364-4.057,6.61-6.515,9.624
			c-2.443,3.022-5.168,5.822-8.079,8.363c-2.892,2.526-6.107,4.782-8.968,6.803l-8.313,5.874l2.295-9.697v0
			c0.249-0.725,0.443-1.557,0.639-2.355c0.18-0.81,0.352-1.624,0.498-2.442c0.298-1.638,0.551-3.286,0.74-4.945
			c0.378-3.319,0.756-6.637,1.058-9.962c0.161-1.661,0.309-3.322,0.436-4.984c0.129-1.66,0.262-3.317,0.358-4.971
			c0.098-1.652,0.198-3.299,0.247-4.913c0.025-0.807,0.04-1.599,0.039-2.355c-0.006-0.363-0.007-0.741-0.031-1.036
			c-0.004-0.18-0.024-0.276-0.042-0.363c-0.01-0.19-0.052,0.048-0.045,0.153l0.078,1.157l-0.093-2.108
			c-0.315-7.167-0.886-14.294-1.524-21.345c-0.319-3.525-0.67-7.032-1.027-10.517c-0.374-3.485-0.742-6.949-1.164-10.388
			c-0.41-3.439-0.848-6.855-1.336-10.24c-0.495-3.383-1.011-6.742-1.654-10.047c-1.274-6.609-2.954-13.036-5.242-19.017
			c-1.143-2.989-2.438-5.863-3.915-8.567c-1.453-2.72-3.112-5.253-4.993-7.533c-1.854-2.301-3.899-4.404-6.208-6.167
			c-2.276-1.813-4.799-3.317-7.518-4.578c-5.462-2.462-11.795-3.756-18.474-4.062c-3.339-0.164-6.764-0.121-10.23,0.117
			c-3.469,0.231-6.974,0.634-10.53,1.074l1.841-4.441v0.001c3.352,3.927,7.054,7.657,10.581,12.212
			c1.759,2.275,3.446,4.783,4.875,7.629c1.43,2.837,2.569,6.048,3.113,9.473c0.565,3.418,0.481,6.985-0.073,10.357
			c-0.604,3.366-1.618,6.555-2.937,9.471c-2.627,5.86-6.147,10.797-9.92,15.252c-3.781,4.462-7.907,8.386-12.093,12.133
			c-4.217,3.729-8.534,7.152-13,10.503l-1.625,1.187l-0.847,0.622l-0.762,0.58c-1.011,0.779-2.049,1.532-3.034,2.338
			c-2,1.583-3.965,3.203-5.865,4.883c-3.819,3.342-7.46,6.853-10.824,10.585c-3.334,3.75-6.469,7.66-9.232,11.804
			c-2.773,4.139-5.188,8.491-7.26,13.011c-2.047,4.531-3.696,9.246-4.976,14.096c-1.281,4.85-2.126,9.843-2.681,14.915
			c-0.526,5.076-0.718,10.233-0.678,15.441c0.061,5.208,0.331,10.467,0.72,15.77c0.368,5.306,0.852,10.657,1.162,16.09
			c0.288,5.427,0.477,10.962-0.169,16.552l-0.771,6.666l-3.673-5.733c-1.342-2.095-2.408-4.252-3.402-6.407
			c-1.005-2.151-1.893-4.317-2.768-6.473c-1.737-4.314-3.353-8.607-5.031-12.827c-1.662-4.224-3.396-8.372-5.269-12.391
			c-1.888-4.011-3.928-7.89-6.245-11.499c-2.329-3.596-4.917-6.929-7.882-9.742c-2.957-2.818-6.286-5.099-9.975-6.676
			c-1.847-0.78-3.777-1.405-5.783-1.835c-2.003-0.443-4.077-0.722-6.196-0.824c-2.12-0.106-4.28-0.056-6.467,0.086
			c-2.188,0.15-4.388,0.466-6.624,0.777h0l1.129-3.273c8.209,10.042,15.441,21.173,20.473,33.57
			c2.53,6.182,4.463,12.689,5.615,19.418c1.161,6.726,1.443,13.684,0.798,20.615c-0.407,3.452-0.905,6.919-1.788,10.302
			c-0.365,1.713-0.928,3.367-1.407,5.052c-0.258,0.843-0.596,1.709-0.898,2.562l-0.469,1.284l-0.236,0.635l-0.233,0.554
			l-0.931,2.217l-0.54,1.255l-0.462,1.055c-0.63,1.4-1.208,2.823-1.794,4.24c-1.134,2.851-2.211,5.722-3.194,8.623
			c-1.97,5.802-3.58,11.717-4.837,17.702c-1.282,5.979-2.203,12.033-2.756,18.119c-1.172,12.169-0.874,24.459,0.639,36.595
			c1.564,12.132,4.377,24.117,8.404,35.698c4.03,11.577,9.191,22.786,15.489,33.34c6.297,10.541,13.625,20.521,21.873,29.616
			l0.809,0.889l0.405,0.444l0.203,0.223l0.432,0.499l1.485,1.765c0.978,1.188,2.02,2.318,3.025,3.482
			c1.032,1.133,1.997,2.205,3.083,3.356l1.661,1.737l0.414,0.436l0.355,0.366l0.812,0.819c4.324,4.377,8.862,8.553,13.632,12.452
			c9.523,7.818,19.859,14.668,30.799,20.393c10.962,5.679,22.513,10.266,34.464,13.504c5.971,1.634,12.042,2.911,18.166,3.883
			c1.54,0.255,3.057,0.467,4.564,0.657c1.477,0.216,3.121,0.367,4.704,0.542c1.47,0.163,3.073,0.264,4.604,0.399
			c1.549,0.115,3.102,0.181,4.655,0.274l4.598,0.15l4.927,0.03c1.551,0.02,3.104,0.065,4.656,0.066
			c1.552-0.029,3.107-0.018,4.66-0.078c6.217-0.197,12.432-0.788,18.614-1.701c12.362-1.856,24.569-5.119,36.395-9.54
			c11.825-4.432,23.274-10.005,34.259-16.451C414.591,528.573,425.099,521.232,435.105,513.193z"/>
	</g>
	<path fill="#ED1C24" d="M240.65,354.905c0,4.028-3.266,7.292-7.292,7.292c-4.028,0-7.285-3.264-7.285-7.292
		c0-4.027,3.256-7.284,7.285-7.284C237.384,347.621,240.65,350.878,240.65,354.905z"/>
	<path fill="#FEBC12" d="M453.436,388.393"/>
	<path fill="#FFFFFF" d="M398.324,297.576c0,0,3.313,13.914,6.625,17.7c0,0-0.842-10.79,1.236-17.7H398.324z"/>
</g>
</svg>
